<svg width="19" height="19" viewBox="0 0 19 19" fill="none" xmlns="http://www.w3.org/2000/svg">
<path d="M6 1H2C1.44772 1 1 1.44772 1 2V6C1 6.55228 1.44772 7 2 7H6C6.55228 7 7 6.55228 7 6V2C7 1.44772 6.55228 1 6 1Z" stroke="#D9D9D9" stroke-width="2" stroke-linecap="round" stroke-linejoin="round"/>
<path d="M17 1H13C12.4477 1 12 1.44772 12 2V6C12 6.55228 12.4477 7 13 7H17C17.5523 7 18 6.55228 18 6V2C18 1.44772 17.5523 1 17 1Z" stroke="#D9D9D9" stroke-width="2" stroke-linecap="round" stroke-linejoin="round"/>
<path d="M6 12H2C1.44772 12 1 12.4477 1 13V17C1 17.5523 1.44772 18 2 18H6C6.55228 18 7 17.5523 7 17V13C7 12.4477 6.55228 12 6 12Z" stroke="#D9D9D9" stroke-width="2" stroke-linecap="round" stroke-linejoin="round"/>
<path d="M17 12H13C12.4477 12 12 12.4477 12 13V17C12 17.5523 12.4477 18 13 18H17C17.5523 18 18 17.5523 18 17V13C18 12.4477 17.5523 12 17 12Z" stroke="#D9D9D9" stroke-width="2" stroke-linecap="round" stroke-linejoin="round"/>
</svg>
