<svg width="24" height="25" viewBox="0 0 24 25" fill="none" xmlns="http://www.w3.org/2000/svg">
<path d="M20 20.5C20.5304 20.5 21.0391 20.2893 21.4142 19.9142C21.7893 19.5391 22 19.0304 22 18.5V8.5C22 7.96957 21.7893 7.46086 21.4142 7.08579C21.0391 6.71071 20.5304 6.5 20 6.5H12.1C11.7655 6.50328 11.4355 6.42261 11.1403 6.26538C10.8451 6.10815 10.594 5.87938 10.41 5.6L9.6 4.4C9.41789 4.12347 9.16997 3.89648 8.8785 3.7394C8.58702 3.58231 8.26111 3.50005 7.93 3.5H4C3.46957 3.5 2.96086 3.71071 2.58579 4.08579C2.21071 4.46086 2 4.96957 2 5.5V18.5C2 19.0304 2.21071 19.5391 2.58579 19.9142C2.96086 20.2893 3.46957 20.5 4 20.5H20Z" stroke="#11AC57" stroke-width="2" stroke-linecap="round" stroke-linejoin="round"/>
</svg>
