<svg width="25" height="24" viewBox="0 0 25 24" fill="none" xmlns="http://www.w3.org/2000/svg">
<path d="M13.9 2H6.5C5.96957 2 5.46086 2.21071 5.08579 2.58579C4.71071 2.96086 4.5 3.46957 4.5 4V20C4.5 20.5304 4.71071 21.0391 5.08579 21.4142C5.46086 21.7893 5.96957 22 6.5 22H18.5C19.0304 22 19.5391 21.7893 19.9142 21.4142C20.2893 21.0391 20.5 20.5304 20.5 20V12.6" stroke="black" stroke-width="2" stroke-linecap="round" stroke-linejoin="round"/>
<path d="M2.5 6H6.5" stroke="black" stroke-width="2" stroke-linecap="round" stroke-linejoin="round"/>
<path d="M2.5 10H6.5" stroke="black" stroke-width="2" stroke-linecap="round" stroke-linejoin="round"/>
<path d="M2.5 14H6.5" stroke="black" stroke-width="2" stroke-linecap="round" stroke-linejoin="round"/>
<path d="M2.5 18H6.5" stroke="black" stroke-width="2" stroke-linecap="round" stroke-linejoin="round"/>
<path d="M21.879 5.62615C22.2773 5.22779 22.5011 4.68751 22.5011 4.12415C22.5011 3.56079 22.2773 3.0205 21.879 2.62215C21.4806 2.22379 20.9403 2 20.377 2C19.8136 2 19.2733 2.22379 18.875 2.62215L13.865 7.63415C13.6272 7.87177 13.4532 8.16548 13.359 8.48815L12.522 11.3581C12.4969 11.4442 12.4954 11.5354 12.5176 11.6222C12.5398 11.7091 12.585 11.7883 12.6484 11.8517C12.7118 11.9151 12.791 11.9603 12.8779 11.9825C12.9647 12.0048 13.0559 12.0032 13.142 11.9781L16.012 11.1411C16.3346 11.0469 16.6283 10.8729 16.866 10.6351L21.879 5.62615Z" stroke="black" stroke-width="2" stroke-linecap="round" stroke-linejoin="round"/>
</svg>
