<svg width="22" height="23" viewBox="0 0 22 23" fill="none" xmlns="http://www.w3.org/2000/svg">
<path d="M19.5 15.5H15.5C14.9477 15.5 14.5 15.9477 14.5 16.5V20.5C14.5 21.0523 14.9477 21.5 15.5 21.5H19.5C20.0523 21.5 20.5 21.0523 20.5 20.5V16.5C20.5 15.9477 20.0523 15.5 19.5 15.5Z" stroke="white" stroke-width="2" stroke-linecap="round" stroke-linejoin="round"/>
<path d="M6.5 1.5H2.5C1.94772 1.5 1.5 1.94772 1.5 2.5V6.5C1.5 7.05228 1.94772 7.5 2.5 7.5H6.5C7.05228 7.5 7.5 7.05228 7.5 6.5V2.5C7.5 1.94772 7.05228 1.5 6.5 1.5Z" stroke="white" stroke-width="2" stroke-linecap="round" stroke-linejoin="round"/>
<path d="M18.5 1.5H14.5C13.9477 1.5 13.5 1.94772 13.5 2.5V6.5C13.5 7.05228 13.9477 7.5 14.5 7.5H18.5C19.0523 7.5 19.5 7.05228 19.5 6.5V2.5C19.5 1.94772 19.0523 1.5 18.5 1.5Z" stroke="white" stroke-width="2" stroke-linecap="round" stroke-linejoin="round"/>
<path d="M16.5 11.5C16.7652 11.5 17.0196 11.6054 17.2071 11.7929C17.3946 11.9804 17.5 12.2348 17.5 12.5V15.5" stroke="white" stroke-width="2" stroke-linecap="round" stroke-linejoin="round"/>
<path d="M10.5 11.5L10.5 4.5" stroke="white" stroke-width="2" stroke-linecap="round" stroke-linejoin="round"/>
<path d="M10.5 11.5L16.5 11.5" stroke="white" stroke-width="2" stroke-linecap="round"/>
<path d="M7.5 4.5L13.5 4.5" stroke="white" stroke-width="2" stroke-linecap="round"/>
</svg>
