<svg width="24" height="25" viewBox="0 0 24 25" fill="none" xmlns="http://www.w3.org/2000/svg">
<path d="M10.2679 21.5C10.4435 21.804 10.696 22.0565 11 22.232C11.304 22.4075 11.6489 22.4999 11.9999 22.4999C12.351 22.4999 12.6959 22.4075 12.9999 22.232C13.3039 22.0565 13.5564 21.804 13.7319 21.5" stroke="white" stroke-width="2" stroke-linecap="round" stroke-linejoin="round"/>
<path d="M3.262 15.826C3.13137 15.9692 3.04516 16.1472 3.01386 16.3385C2.98256 16.5298 3.00752 16.726 3.08571 16.9034C3.1639 17.0807 3.29194 17.2316 3.45426 17.3375C3.61658 17.4434 3.80618 17.4999 4 17.5H20C20.1938 17.5001 20.3834 17.4438 20.5459 17.3381C20.7083 17.2324 20.8365 17.0817 20.9149 16.9045C20.9933 16.7273 21.0185 16.5311 20.9874 16.3398C20.9564 16.1485 20.8704 15.9703 20.74 15.827C19.41 14.456 18 12.999 18 8.5C18 6.9087 17.3679 5.38258 16.2426 4.25736C15.1174 3.13214 13.5913 2.5 12 2.5C10.4087 2.5 8.88258 3.13214 7.75736 4.25736C6.63214 5.38258 6 6.9087 6 8.5C6 12.999 4.589 14.456 3.262 15.826Z" stroke="white" stroke-width="2" stroke-linecap="round" stroke-linejoin="round"/>
</svg>
